<svg width="12" height="12" viewBox="0 0 12 12" fill="none" xmlns="http://www.w3.org/2000/svg">
<path d="M0.145991 0.854021C0.0995027 0.807533 0.0626266 0.752344 0.0374675 0.691605C0.0123084 0.630865 -0.000640869 0.565765 -0.000640869 0.500021C-0.00064087 0.434277 0.0123084 0.369177 0.0374675 0.308438C0.0626266 0.247698 0.0995027 0.192509 0.145991 0.146021C0.192479 0.0995332 0.247668 0.0626571 0.308407 0.037498C0.369147 0.0123389 0.434247 -0.000610352 0.499991 -0.000610352C0.565735 -0.000610351 0.630835 0.0123389 0.691574 0.037498C0.752314 0.0626571 0.807503 0.0995332 0.853991 0.146021L5.99999 5.29302L11.146 0.146021C11.1925 0.0995332 11.2477 0.0626571 11.3084 0.037498C11.3691 0.0123389 11.4342 -0.000610352 11.5 -0.000610352C11.5657 -0.000610352 11.6308 0.0123389 11.6916 0.037498C11.7523 0.0626571 11.8075 0.0995332 11.854 0.146021C11.9005 0.192509 11.9374 0.247698 11.9625 0.308438C11.9877 0.369177 12.0006 0.434277 12.0006 0.500021C12.0006 0.565765 11.9877 0.630865 11.9625 0.691605C11.9374 0.752344 11.9005 0.807533 11.854 0.854021L6.70699 6.00002L11.854 11.146C11.9005 11.1925 11.9374 11.2477 11.9625 11.3084C11.9877 11.3692 12.0006 11.4343 12.0006 11.5C12.0006 11.5658 11.9877 11.6309 11.9625 11.6916C11.9374 11.7523 11.9005 11.8075 11.854 11.854C11.8075 11.9005 11.7523 11.9374 11.6916 11.9625C11.6308 11.9877 11.5657 12.0007 11.5 12.0007C11.4342 12.0007 11.3691 11.9877 11.3084 11.9625C11.2477 11.9374 11.1925 11.9005 11.146 11.854L5.99999 6.70702L0.853991 11.854C0.807503 11.9005 0.752314 11.9374 0.691574 11.9625C0.630835 11.9877 0.565735 12.0007 0.499991 12.0007C0.434247 12.0007 0.369147 11.9877 0.308407 11.9625C0.247668 11.9374 0.192479 11.9005 0.145991 11.854C0.0995027 11.8075 0.0626266 11.7523 0.0374675 11.6916C0.0123084 11.6309 -0.000640869 11.5658 -0.000640869 11.5C-0.000640869 11.4343 0.0123084 11.3692 0.0374675 11.3084C0.0626266 11.2477 0.0995027 11.1925 0.145991 11.146L5.29299 6.00002L0.145991 0.854021Z" fill="white"/>
</svg>
